<?xml version="1.0" standalone="no"?>
<!DOCTYPE svg PUBLIC "-//W3C//DTD SVG 20010904//EN"
 "http://www.w3.org/TR/2001/REC-SVG-20010904/DTD/svg10.dtd">
<svg version="1.0" xmlns="http://www.w3.org/2000/svg"
 width="1632.000000pt" height="1632.000000pt" viewBox="0 0 1632.000000 1632.000000"
 preserveAspectRatio="xMidYMid meet">
<metadata>
Created by potrace 1.14, written by Peter Selinger 2001-2017
</metadata>
<g transform="translate(0.000000,1632.000000) scale(0.100000,-0.100000)"
fill="#000000" stroke="none">
<path d="M10189 11001 c-29 -34 -150 -163 -324 -346 -27 -30 -96 -102 -151
-162 -56 -59 -123 -131 -150 -160 -27 -28 -94 -99 -149 -158 -55 -59 -125
-133 -155 -165 -30 -32 -100 -106 -155 -165 -91 -98 -171 -183 -310 -331 -27
-29 -95 -101 -150 -160 -55 -59 -118 -126 -140 -149 -22 -23 -92 -97 -155
-165 -63 -67 -133 -141 -155 -165 -96 -102 -267 -284 -305 -325 -23 -25 -97
-103 -164 -174 -176 -187 -207 -220 -309 -330 -51 -54 -117 -125 -147 -156
-30 -32 -106 -112 -169 -179 -63 -67 -117 -121 -120 -121 -3 0 -22 15 -42 33
-20 17 -65 57 -100 87 -35 30 -74 65 -87 78 -13 12 -25 22 -27 22 -3 0 -13 8
-23 18 -10 9 -44 40 -76 67 -32 28 -68 59 -80 70 -13 11 -51 45 -86 75 -35 30
-71 62 -80 70 -8 8 -31 28 -50 44 -19 16 -64 54 -99 85 -36 31 -86 74 -111 96
-26 22 -73 63 -106 92 -32 28 -70 61 -84 73 -14 12 -50 43 -80 70 -30 26 -98
85 -150 130 -52 46 -102 89 -110 97 -8 7 -35 30 -59 51 -24 20 -53 45 -65 55
-12 10 -43 37 -70 60 -27 23 -59 51 -70 62 -12 11 -39 35 -61 54 -56 47 -153
132 -184 160 -14 12 -46 39 -70 60 -24 20 -54 45 -65 56 -12 11 -53 47 -91 80
-39 33 -72 62 -75 65 -3 3 -36 32 -75 65 -38 33 -75 65 -81 70 -60 54 -128
111 -138 116 -6 3 -922 -905 -2089 -2073 l-2077 -2078 450 -450 c248 -248 452
-450 455 -450 3 0 750 745 1661 1656 1639 1638 1656 1655 1677 1637 11 -10 28
-25 37 -33 9 -8 32 -28 51 -44 19 -16 52 -45 74 -65 22 -20 67 -58 99 -86 33
-27 69 -59 82 -70 12 -11 48 -42 79 -70 107 -92 160 -139 171 -149 6 -6 33
-29 59 -51 42 -36 92 -79 161 -140 12 -11 46 -40 75 -65 30 -25 63 -54 75 -66
12 -11 43 -38 70 -60 26 -21 58 -49 70 -61 13 -13 28 -23 34 -23 6 0 8 -4 5
-10 -3 -5 -1 -10 4 -10 6 0 19 -8 29 -17 10 -10 45 -40 77 -68 32 -27 76 -67
98 -87 22 -21 43 -38 46 -38 3 -1 32 -25 65 -55 32 -30 63 -55 67 -55 23 0 3
-34 -61 -101 -38 -40 -70 -74 -70 -75 0 -1 -28 -31 -62 -67 -35 -35 -117 -122
-183 -193 -66 -71 -147 -157 -180 -192 -33 -35 -78 -83 -100 -107 -22 -23 -98
-104 -170 -180 -71 -75 -133 -142 -137 -148 -4 -6 1 -19 10 -28 9 -9 69 -72
132 -139 63 -68 151 -161 195 -208 44 -46 96 -101 115 -122 45 -49 255 -272
300 -320 19 -20 52 -56 73 -79 38 -42 39 -42 60 -24 11 10 34 32 49 50 16 17
55 58 86 91 31 33 107 113 167 178 61 64 121 129 135 144 53 56 270 287 306
325 61 66 288 307 303 322 12 12 17 11 35 -5 11 -11 32 -29 46 -40 14 -11 36
-31 50 -42 14 -12 47 -41 74 -64 26 -22 61 -52 76 -66 15 -14 53 -47 86 -75
32 -27 68 -59 80 -70 12 -11 41 -36 65 -56 24 -21 60 -52 80 -70 21 -19 61
-54 90 -79 61 -52 150 -129 194 -168 17 -15 56 -49 89 -77 l58 -49 27 30 c14
17 41 48 60 70 18 21 59 68 90 103 85 98 93 106 136 157 22 26 55 62 73 81 17
19 32 37 32 39 0 2 8 12 18 22 9 10 40 45 67 77 28 32 59 68 70 80 11 13 38
44 60 70 22 25 55 62 73 81 17 19 32 36 32 39 0 2 10 15 23 28 12 12 34 37 50
55 l28 32 -27 25 c-15 14 -50 44 -77 68 -80 67 -129 110 -158 137 -15 14 -47
41 -70 60 -23 19 -57 50 -76 68 -19 18 -44 38 -54 46 -11 7 -36 29 -57 47 -20
19 -68 61 -107 94 -63 54 -118 102 -149 130 -6 6 -45 39 -86 75 -41 36 -83 72
-93 81 -17 15 -16 18 20 56 21 22 85 91 143 153 58 61 128 135 155 164 28 29
100 105 160 170 61 65 130 140 155 166 25 26 88 93 140 149 52 56 118 125 145
155 28 29 104 110 170 180 66 71 143 152 170 181 28 29 95 101 150 160 55 60
118 127 140 150 22 22 92 97 155 164 63 68 133 143 155 166 22 23 94 100 160
170 66 71 156 166 200 213 44 46 84 90 88 98 5 9 14 11 22 7 13 -8 144 -127
251 -229 30 -28 54 -50 54 -49 0 1 27 -24 61 -56 33 -31 99 -93 146 -136 47
-43 102 -94 123 -113 21 -19 84 -78 140 -130 56 -52 119 -111 140 -130 21 -19
82 -75 136 -125 53 -49 114 -106 134 -125 20 -19 81 -75 135 -125 106 -98 102
-94 260 -240 59 -55 120 -111 135 -125 78 -72 218 -201 264 -245 29 -27 95
-88 146 -135 51 -47 115 -105 141 -130 26 -25 92 -85 146 -135 53 -49 111
-103 129 -120 17 -16 71 -66 119 -110 48 -44 105 -96 125 -115 20 -19 81 -75
135 -125 53 -49 114 -106 135 -125 21 -19 82 -75 135 -125 54 -49 117 -108
140 -130 23 -22 84 -78 135 -125 51 -47 107 -98 125 -115 17 -16 76 -71 131
-121 54 -51 115 -107 135 -125 52 -48 243 -225 307 -284 30 -27 76 -70 102
-95 27 -25 95 -88 151 -140 56 -52 113 -105 125 -117 13 -13 26 -23 30 -23 9
0 51 45 86 92 15 20 33 42 40 50 7 7 60 72 118 143 58 72 112 139 121 150 149
179 179 216 179 220 0 2 10 15 23 28 12 13 33 38 47 56 14 18 35 44 47 57 12
13 34 40 50 61 28 37 43 56 83 103 l21 24 -33 30 c-18 16 -64 59 -103 95 -38
37 -117 109 -174 161 -56 52 -122 113 -146 135 -23 22 -91 85 -151 140 -158
146 -154 142 -259 240 -54 50 -119 110 -146 135 -26 25 -69 65 -96 89 -26 24
-95 88 -153 142 -58 53 -119 110 -136 125 -17 16 -82 76 -144 134 -62 58 -127
118 -144 133 -17 16 -76 71 -131 122 -55 51 -124 114 -154 141 -29 27 -70 65
-90 84 -20 19 -86 80 -146 135 -59 55 -130 120 -156 145 -26 25 -81 75 -121
112 -40 36 -94 86 -119 110 -26 23 -90 84 -144 133 -54 50 -115 106 -135 125
-20 19 -75 69 -121 111 -46 42 -112 103 -146 135 -34 33 -101 95 -149 139 -48
44 -109 100 -135 125 -26 25 -79 73 -117 108 -38 34 -100 92 -138 128 -38 36
-87 81 -109 101 -22 19 -69 63 -105 96 -36 34 -117 109 -179 167 -63 58 -132
122 -155 143 -23 22 -76 71 -119 110 -43 40 -98 90 -121 112 -23 22 -87 81
-141 130 -54 50 -119 110 -145 135 -26 25 -82 77 -125 115 -43 39 -96 88 -119
110 -41 39 -72 68 -286 265 -56 52 -116 107 -132 123 -17 15 -31 27 -32 27 -2
0 -18 -18 -37 -39z"/>
</g>
</svg>
